<svg width="176" height="45" viewBox="0 0 176 45" fill="none" xmlns="http://www.w3.org/2000/svg">
<circle cx="15.9342" cy="28.2469" r="15.9342" fill="#7B75D7"/>
<g style="mix-blend-mode:luminosity">
<circle cx="24.6256" cy="18.107" r="15.572" stroke="white" stroke-width="5.06996"/>
</g>
<path d="M83.0772 25.6795C82.8174 27.9015 81.995 29.6186 80.6098 30.8306C79.2342 32.033 77.4017 32.6343 75.1123 32.6343C72.6306 32.6343 70.6393 31.7445 69.1387 29.9649C67.6477 28.1853 66.9022 25.8045 66.9022 22.8225V20.8025C66.9022 18.8497 67.2485 17.1327 67.9411 15.6513C68.6433 14.1699 69.6341 13.0348 70.9135 12.2461C72.1929 11.4477 73.6743 11.0484 75.3576 11.0484C77.5893 11.0484 79.3785 11.6737 80.7252 12.9242C82.0719 14.1651 82.8559 15.887 83.0772 18.0898H80.2924C80.0519 16.416 79.5276 15.204 78.7196 14.4537C77.9212 13.7034 76.8005 13.3282 75.3576 13.3282C73.5877 13.3282 72.1977 13.9823 71.1877 15.2906C70.1872 16.5988 69.687 18.4602 69.687 20.8746V22.9091C69.687 25.1889 70.1632 27.0021 71.1155 28.3488C72.0678 29.6955 73.4001 30.3689 75.1123 30.3689C76.6514 30.3689 77.8298 30.0226 78.6475 29.33C79.4747 28.6278 80.023 27.411 80.2924 25.6795H83.0772ZM96.0921 32.3457C95.9382 32.0379 95.8132 31.4896 95.717 30.7008C94.4761 31.9898 92.9947 32.6343 91.2728 32.6343C89.7337 32.6343 88.4688 32.2014 87.478 31.3356C86.4968 30.4603 86.0062 29.3541 86.0062 28.017C86.0062 26.3913 86.6219 25.1312 87.8532 24.2366C89.0941 23.3323 90.8352 22.8802 93.0765 22.8802H95.6737V21.6538C95.6737 20.7207 95.3947 19.98 94.8368 19.4317C94.2789 18.8738 93.4564 18.5948 92.3694 18.5948C91.4171 18.5948 90.6187 18.8353 89.9742 19.3163C89.3297 19.7972 89.0075 20.3792 89.0075 21.0622H86.3237C86.3237 20.283 86.5978 19.5327 87.1461 18.8113C87.7041 18.0802 88.4544 17.503 89.3971 17.0798C90.3494 16.6565 91.3931 16.4449 92.5282 16.4449C94.327 16.4449 95.7362 16.897 96.7559 17.8012C97.7755 18.6958 98.3046 19.9319 98.3431 21.5095V28.6951C98.3431 30.1284 98.5258 31.2683 98.8914 32.1148V32.3457H96.0921ZM91.6624 30.3112C92.4993 30.3112 93.2929 30.0947 94.0432 29.6619C94.7935 29.229 95.337 28.6663 95.6737 27.9737V24.7704H93.5815C90.3109 24.7704 88.6756 25.7276 88.6756 27.6418C88.6756 28.4787 88.9546 29.1328 89.5125 29.6042C90.0704 30.0755 90.7871 30.3112 91.6624 30.3112ZM111.618 28.2045C111.618 27.4831 111.344 26.9252 110.795 26.5308C110.257 26.1268 109.309 25.7805 107.953 25.4919C106.606 25.2033 105.534 24.857 104.735 24.453C103.946 24.049 103.36 23.568 102.975 23.0101C102.6 22.4522 102.412 21.7884 102.412 21.0189C102.412 19.7395 102.951 18.6573 104.028 17.7724C105.115 16.8874 106.5 16.4449 108.184 16.4449C109.954 16.4449 111.387 16.9018 112.483 17.8157C113.59 18.7295 114.143 19.8982 114.143 21.3219H111.459C111.459 20.5908 111.146 19.9608 110.521 19.4317C109.906 18.9026 109.126 18.6381 108.184 18.6381C107.212 18.6381 106.452 18.8497 105.904 19.273C105.356 19.6962 105.081 20.2493 105.081 20.9323C105.081 21.5768 105.336 22.0626 105.846 22.3897C106.356 22.7167 107.275 23.0293 108.602 23.3275C109.939 23.6257 111.021 23.9817 111.849 24.3953C112.676 24.8089 113.287 25.3091 113.681 25.8959C114.085 26.4731 114.287 27.1801 114.287 28.017C114.287 29.4118 113.729 30.5324 112.613 31.3789C111.498 32.2158 110.05 32.6343 108.27 32.6343C107.02 32.6343 105.913 32.413 104.952 31.9705C103.99 31.528 103.234 30.9124 102.686 30.1236C102.148 29.3252 101.878 28.4643 101.878 27.5408H104.548C104.596 28.4354 104.952 29.1472 105.615 29.6763C106.289 30.1957 107.174 30.4555 108.27 30.4555C109.28 30.4555 110.088 30.2535 110.694 29.8495C111.31 29.4358 111.618 28.8875 111.618 28.2045ZM120.434 18.6237C121.617 17.1712 123.156 16.4449 125.051 16.4449C128.351 16.4449 130.015 18.3062 130.044 22.0289V32.3457H127.374V22.0145C127.365 20.889 127.105 20.057 126.595 19.5183C126.095 18.9796 125.311 18.7103 124.243 18.7103C123.377 18.7103 122.617 18.9411 121.963 19.4028C121.309 19.8646 120.799 20.4706 120.434 21.2209V32.3457H117.765V10.1827H120.434V18.6237ZM133.333 24.3953C133.333 22.8658 133.632 21.4902 134.228 20.2686C134.834 19.0469 135.671 18.1042 136.739 17.4405C137.816 16.7768 139.042 16.4449 140.418 16.4449C142.544 16.4449 144.261 17.1808 145.569 18.6525C146.887 20.1243 147.546 22.0818 147.546 24.5251V24.7127C147.546 26.2326 147.253 27.5985 146.666 28.8106C146.089 30.013 145.257 30.9509 144.17 31.6242C143.092 32.2976 141.851 32.6343 140.447 32.6343C138.331 32.6343 136.614 31.8984 135.296 30.4266C133.988 28.9549 133.333 27.0069 133.333 24.5829V24.3953ZM136.017 24.7127C136.017 26.4442 136.416 27.8342 137.215 28.8827C138.023 29.9312 139.1 30.4555 140.447 30.4555C141.803 30.4555 142.881 29.9264 143.679 28.8683C144.477 27.8005 144.877 26.3095 144.877 24.3953C144.877 22.683 144.468 21.2979 143.65 20.2397C142.842 19.172 141.765 18.6381 140.418 18.6381C139.1 18.6381 138.037 19.1624 137.229 20.2109C136.421 21.2594 136.017 22.76 136.017 24.7127ZM160.532 30.8018C159.493 32.0234 157.969 32.6343 155.958 32.6343C154.294 32.6343 153.024 32.1533 152.149 31.1914C151.283 30.2198 150.845 28.7865 150.836 26.8915V16.7335H153.505V26.8194C153.505 29.1857 154.467 30.3689 156.391 30.3689C158.43 30.3689 159.787 29.609 160.46 28.0891V16.7335H163.129V32.3457H160.59L160.532 30.8018ZM170.82 12.9531V16.7335H173.735V18.7968H170.82V28.4787C170.82 29.104 170.95 29.5753 171.21 29.8927C171.469 30.2006 171.912 30.3545 172.537 30.3545C172.845 30.3545 173.268 30.2968 173.807 30.1813V32.3457C173.105 32.5381 172.422 32.6343 171.758 32.6343C170.565 32.6343 169.666 32.2735 169.06 31.5521C168.454 30.8306 168.151 29.8062 168.151 28.4787V18.7968H165.308V16.7335H168.151V12.9531H170.82Z" fill="white"/>
</svg>
