<svg width="23" height="23" viewBox="0 0 23 23" fill="none" xmlns="http://www.w3.org/2000/svg">
<path d="M22.1458 12.712H19.0062V9.69454H22.1458C22.6176 9.69454 23 9.31251 23 8.84065C23 8.36875 22.6176 7.98649 22.1458 7.98649H19.0062V3.79964C19.0062 3.18847 18.8854 2.73988 18.6473 2.46662C18.4211 2.20667 18.1236 2.0857 17.7116 2.0857C17.3185 2.0857 17.0322 2.20583 16.8103 2.46417C16.575 2.7377 16.4556 3.18713 16.4556 3.79992V7.987H10.5497L8.03861 4.18714C7.8237 3.84803 7.62163 3.53037 7.4254 3.22545C7.24873 2.95085 7.07641 2.72728 6.91364 2.56034C6.76955 2.41254 6.60535 2.29815 6.41329 2.21023C6.23207 2.12751 6.00168 2.08598 5.72912 2.08598C5.38148 2.08598 5.0659 2.18122 4.76372 2.3769C4.4647 2.57044 4.25799 2.80973 4.13174 3.10848C4.02093 3.39239 3.9623 3.82745 3.9623 4.38903V7.98672H0.853841C0.382173 7.98677 0 8.36903 0 8.84089C0 9.31274 0.382173 9.69477 0.853888 9.69477H3.96235V12.7125H0.853888C0.382173 12.7125 0 13.0947 0 13.5667C0 14.0384 0.382173 14.4203 0.853888 14.4203H3.96235V19.2006C3.96235 19.7937 4.08697 20.2378 4.33381 20.5199C4.56856 20.789 4.8662 20.9139 5.27038 20.9139C5.66034 20.9139 5.95566 20.7884 6.20056 20.5189C6.45134 20.2427 6.57819 19.799 6.57819 19.2007V14.4203H11.9223L14.8143 18.8549C15.0154 19.148 15.223 19.4439 15.4301 19.734C15.6169 19.9945 15.8207 20.2241 16.0358 20.4158C16.2295 20.5893 16.4371 20.7163 16.6529 20.7939C16.8751 20.8739 17.1348 20.9144 17.423 20.9144C18.2051 20.9144 19.0061 20.675 19.0061 18.8993V14.4203H22.1457C22.6175 14.4203 22.9999 14.0379 22.9999 13.5661C23 13.0944 22.6176 12.712 22.1458 12.712ZM16.4555 9.6945V12.7119H13.6728L11.6789 9.6945H16.4555ZM6.57824 6.22736L7.72577 7.98649H6.57824V6.22736ZM6.57824 12.712V9.69454H8.84004L10.8082 12.712H6.57824ZM16.4555 16.9236L14.8017 14.4203H16.4555V16.9236Z" fill="white"/>
</svg>
