<svg width="1440" height="900" viewBox="0 0 1440 900" fill="none" xmlns="http://www.w3.org/2000/svg">
<path opacity="0.367403" fill-rule="evenodd" clip-rule="evenodd" d="M-908.141 1319.2C-788.475 1706.64 -583.211 2083.7 -317.713 2375.19C70.624 2801.55 587.827 3044.85 1154.53 2869.82C2108.66 2575.12 3306.15 1666.68 3011.45 712.542C2716.75 -241.595 507.366 -1305.7 -446.77 -1011C-1400.91 -716.298 -1202.84 365.068 -908.141 1319.2Z" stroke="#1A8B9C" stroke-opacity="0.03" stroke-width="5"/>
<path opacity="0.691156" fill-rule="evenodd" clip-rule="evenodd" d="M-901.066 1297.64C-785.857 1683.66 -585.516 2060.18 -324.526 2352.27C57.2183 2779.51 568.715 3026.11 1133.34 2857.59C2084 2573.87 3282.22 1682.75 2998.5 732.098C2714.78 -218.556 530 -1296.59 -420.654 -1012.87C-1371.31 -729.148 -1184.79 346.982 -901.066 1297.64Z" stroke="#1A8B9C" stroke-opacity="0.03" stroke-width="5"/>
<path opacity="0.411555" fill-rule="evenodd" clip-rule="evenodd" d="M-893.839 1277.07C-782.881 1661.68 -587.248 2037.62 -330.584 2330.22C44.8332 2758.21 550.82 3007.89 1113.38 2845.6C2060.55 2572.35 3259.25 1697.82 2985.99 750.654C2712.74 -196.517 551.722 -1287.57 -395.449 -1014.32C-1342.62 -741.066 -1167.09 329.896 -893.839 1277.07Z" stroke="#1A8B9C" stroke-opacity="0.03" stroke-width="5"/>
<path opacity="0.758845" fill-rule="evenodd" clip-rule="evenodd" d="M-886.096 1257.25C-779.235 1640.27 -588.185 2015.42 -335.784 2308.32C33.3982 2736.73 533.838 2989.17 1094.07 2832.87C2037.33 2569.7 3235.68 1711.47 2972.52 768.212C2709.35 -175.043 572.241 -1277.71 -371.014 -1014.54C-1314.27 -751.379 -1149.26 313.991 -886.096 1257.25Z" stroke="#1A8B9C" stroke-opacity="0.03" stroke-width="5"/>
<path opacity="0.886638" fill-rule="evenodd" clip-rule="evenodd" d="M-877.763 1238.29C-774.818 1619.63 -588.186 1993.86 -339.927 2286.9C23.1967 2715.52 518.166 2970.44 1075.94 2819.87C2015.06 2566.35 3212.53 1723.89 2959.01 784.773C2705.49 -154.343 591.947 -1267.45 -347.168 -1013.93C-1286.28 -760.411 -1131.28 299.178 -877.763 1238.29Z" stroke="#1A8B9C" stroke-opacity="0.03" stroke-width="5"/>
<path opacity="0.510898" fill-rule="evenodd" clip-rule="evenodd" d="M-869.386 1220.36C-770.147 1600.05 -587.706 1973.34 -343.389 2266.46C13.9675 2695.2 503.7 2952.42 1059.07 2807.27C1994.12 2562.87 3190.55 1735.41 2946.16 800.356C2701.77 -134.699 610.777 -1257.44 -324.278 -1013.05C-1259.33 -768.656 -1113.78 285.308 -869.386 1220.36Z" stroke="#1A8B9C" stroke-opacity="0.03" stroke-width="5"/>
<path opacity="0.981477" fill-rule="evenodd" clip-rule="evenodd" d="M-860.467 1203.29C-764.756 1581.25 -586.339 1953.47 -345.846 2246.52C5.91924 2675.16 490.492 2934.41 1043.32 2794.41C1974.1 2558.71 3168.96 1745.74 2933.25 814.956C2697.55 -115.823 628.775 -1247.06 -302.004 -1011.35C-1232.78 -775.646 -1096.17 272.513 -860.467 1203.29Z" stroke="#1A8B9C" stroke-opacity="0.03" stroke-width="5"/>
<path opacity="0.285457" fill-rule="evenodd" clip-rule="evenodd" d="M-851.14 1187.01C-758.795 1563.08 -584.265 1934.06 -347.512 2226.84C-1.21793 2655.09 478.198 2916.05 1028.27 2780.98C1954.41 2553.57 3146.99 1754.71 2919.57 828.563C2692.16 -97.5805 645.577 -1235.98 -280.566 -1008.57C-1206.71 -781.149 -1078.56 260.864 -851.14 1187.01Z" stroke="#1A8B9C" stroke-opacity="0.03" stroke-width="5"/>
<path opacity="0.0480101" fill-rule="evenodd" clip-rule="evenodd" d="M-841.761 1171.69C-752.581 1545.9 -581.727 1915.59 -348.532 2208.04C-7.44226 2635.8 467.021 2898.28 1014.36 2767.84C1935.9 2548.22 3125.98 1762.75 2906.36 841.215C2686.73 -80.3236 661.462 -1225.06 -260.077 -1005.43C-1181.62 -785.811 -1061.38 250.155 -841.761 1171.69Z" stroke="#1A8B9C" stroke-opacity="0.03" stroke-width="5"/>
<path opacity="0.962593" fill-rule="evenodd" clip-rule="evenodd" d="M-832.014 1157.17C-745.835 1529.36 -578.516 1897.61 -348.793 2189.53C-12.781 2616.52 456.741 2880.22 1001.14 2754.17C1917.74 2541.94 3104.64 1769.48 2892.41 852.882C2680.18 -63.7134 676.154 -1213.49 -240.442 -1001.26C-1157.04 -789.027 -1044.24 240.574 -832.014 1157.17Z" stroke="#1A8B9C" stroke-opacity="0.03" stroke-width="5"/>
<path opacity="0.701772" fill-rule="evenodd" clip-rule="evenodd" d="M-821.76 1143.5C-738.408 1513.6 -574.459 1880.27 -348.086 2171.52C-16.9748 2597.53 447.688 2862.2 989.034 2740.28C1900.49 2535.01 3083.7 1775.04 2878.43 863.584C2673.16 -47.8684 690.018 -1201.57 -221.434 -996.3C-1132.89 -791.029 -1027.03 232.044 -821.76 1143.5Z" stroke="#1A8B9C" stroke-opacity="0.03" stroke-width="5"/>
<path opacity="0.921613" fill-rule="evenodd" clip-rule="evenodd" d="M-811.125 1130.72C-730.412 1498.71 -569.647 1863.73 -346.473 2154.21C-20.0416 2579.09 439.907 2844.49 978.155 2726.44C1884.39 2527.67 3063.58 1779.58 2864.81 873.344C2666.04 -32.8913 703.152 -1189.58 -203.084 -990.808C-1109.32 -792.039 -1009.89 224.486 -811.125 1130.72Z" stroke="#1A8B9C" stroke-opacity="0.03" stroke-width="5"/>
<path opacity="0.225293" fill-rule="evenodd" clip-rule="evenodd" d="M-800.506 1118.89C-722.238 1484.79 -564.447 1848.15 -344.29 2137.8C-22.2702 2561.47 433.178 2827.43 968.367 2712.95C1869.45 2520.2 3044.45 1783.28 2851.71 882.197C2658.96 -18.8883 715.401 -1177.8 -185.683 -985.051C-1086.77 -792.303 -993.254 217.808 -800.506 1118.89Z" stroke="#1A8B9C" stroke-opacity="0.03" stroke-width="5"/>
<path opacity="0.689608" fill-rule="evenodd" clip-rule="evenodd" d="M-789.581 1107.84C-713.597 1471.52 -558.64 1833.06 -341.409 2121.71C-23.669 2543.9 427.303 2810.14 959.25 2699C1854.88 2511.88 3025.06 1785.72 2837.94 890.094C2650.82 -5.53406 726.477 -1165.45 -169.151 -978.325C-1064.78 -791.201 -976.704 212.214 -789.581 1107.84Z" stroke="#1A8B9C" stroke-opacity="0.03" stroke-width="5"/>
<path opacity="0.846046" fill-rule="evenodd" clip-rule="evenodd" d="M-778.7 1097.72C-704.809 1459.21 -552.48 1818.93 -337.993 2106.51C-24.2675 2527.16 422.442 2793.5 951.196 2685.42C1841.45 2503.45 3006.68 1787.36 2824.71 897.11C2642.74 6.86037 736.687 -1153.34 -153.562 -971.368C-1043.81 -789.397 -960.67 207.468 -778.7 1097.72Z" stroke="#1A8B9C" stroke-opacity="0.03" stroke-width="5"/>
<path opacity="0.319612" fill-rule="evenodd" clip-rule="evenodd" d="M-767.541 1088.36C-695.584 1447.55 -545.744 1805.28 -333.911 2091.64C-24.0665 2510.5 418.409 2776.67 943.795 2671.42C1828.38 2494.21 2988.05 1787.77 2810.84 903.192C2633.63 18.6111 745.742 -1140.69 -138.839 -963.478C-1023.42 -786.271 -944.748 203.778 -767.541 1088.36Z" stroke="#1A8B9C" stroke-opacity="0.03" stroke-width="5"/>
<path opacity="0.810631" fill-rule="evenodd" clip-rule="evenodd" d="M-755.957 1079.81C-685.767 1436.64 -538.257 1792.28 -328.957 2077.29C-22.8193 2494.16 415.512 2759.93 937.436 2657.26C1816.19 2484.4 2969.86 1787.12 2797 908.374C2624.14 29.6225 754.016 -1127.76 -124.735 -954.907C-1003.49 -782.051 -928.813 201.059 -755.957 1079.81Z" stroke="#1A8B9C" stroke-opacity="0.03" stroke-width="5"/>
<path opacity="0.744262" fill-rule="evenodd" clip-rule="evenodd" d="M-744.074 1072.11C-675.476 1426.56 -530.115 1780.06 -323.2 2063.63C-20.5504 2478.41 413.791 2743.57 932.235 2643.23C1805.13 2474.3 2952.53 1785.58 2783.6 912.691C2614.66 39.7982 761.626 -1114.85 -111.267 -945.916C-984.159 -776.981 -913.009 199.215 -744.074 1072.11Z" stroke="#1A8B9C" stroke-opacity="0.03" stroke-width="5"/>
<path opacity="0.466795" fill-rule="evenodd" clip-rule="evenodd" d="M-732.278 1065.29C-665.09 1417.39 -521.682 1768.77 -316.975 2050.87C-17.5541 2463.48 413.013 2727.89 928.036 2629.62C1795.17 2464.16 2936.22 1783.32 2770.75 916.184C2605.29 49.0511 768.422 -1102.22 -98.7118 -936.759C-965.845 -771.296 -897.742 198.152 -732.278 1065.29Z" stroke="#1A8B9C" stroke-opacity="0.03" stroke-width="5"/>
<path opacity="0.779813" fill-rule="evenodd" clip-rule="evenodd" d="M-720.246 1059.19C-654.317 1408.85 -512.729 1757.95 -310.142 2038.41C-13.8221 2448.64 412.999 2712.04 924.443 2615.61C1785.55 2453.25 2919.67 1779.9 2757.31 918.795C2594.95 57.6892 774.107 -1089.09 -86.9986 -926.732C-948.105 -764.37 -882.608 198.085 -720.246 1059.19Z" stroke="#1A8B9C" stroke-opacity="0.03" stroke-width="5"/>
<path opacity="0.75832" fill-rule="evenodd" clip-rule="evenodd" d="M-708.316 1053.95C-643.47 1401.21 -503.509 1748.04 -302.869 2026.83C-9.39804 2434.62 413.89 2696.86 921.817 2602.01C1777 2442.32 2904.12 1775.8 2744.43 920.614C2584.73 65.4298 779.007 -1076.26 -76.1776 -916.563C-931.362 -756.868 -868.011 198.767 -708.316 1053.95Z" stroke="#1A8B9C" stroke-opacity="0.03" stroke-width="5"/>
<path opacity="0.581806" fill-rule="evenodd" clip-rule="evenodd" d="M-696.124 1049.5C-632.198 1394.34 -493.697 1738.86 -294.865 2015.91C-4.03844 2421.14 415.861 2682.05 920.255 2588.55C1769.49 2431.12 2889.37 1770.87 2731.94 921.629C2574.51 72.3916 783.274 -1063.43 -65.963 -906.006C-915.2 -748.577 -853.552 200.262 -696.124 1049.5Z" stroke="#1A8B9C" stroke-opacity="0.03" stroke-width="5"/>
<path opacity="0.999264" fill-rule="evenodd" clip-rule="evenodd" d="M-683.627 1045.7C-620.486 1387.99 -483.335 1730.01 -286.252 2005.13C2.01664 2407.55 418.505 2666.84 919.155 2574.49C1762.09 2418.99 2874.05 1764.72 2718.56 921.784C2563.06 78.8498 786.392 -1049.92 -56.5428 -894.426C-899.477 -738.93 -839.123 202.768 -683.627 1045.7Z" stroke="#1A8B9C" stroke-opacity="0.03" stroke-width="5"/>
<path opacity="0.526328" fill-rule="evenodd" clip-rule="evenodd" d="M-670.844 1042.66C-608.332 1382.37 -472.373 1721.85 -276.909 1994.96C8.99276 2394.45 422.201 2651.95 919.085 2560.51C1755.68 2406.57 2859.47 1757.76 2705.52 921.163C2551.57 84.571 788.908 -1036.39 -47.6842 -882.444C-884.276 -728.498 -824.791 206.065 -670.844 1042.66Z" stroke="#1A8B9C" stroke-opacity="0.03" stroke-width="5"/>
<path opacity="0.232642" fill-rule="evenodd" clip-rule="evenodd" d="M-658.217 1040.42C-596.167 1377.61 -461.214 1714.58 -267.196 1985.68C16.5899 2382.21 426.741 2637.8 919.948 2547.05C1750.35 2394.24 2845.97 1750.23 2693.17 919.824C2540.36 89.4223 790.734 -1023.25 -39.6675 -870.438C-870.069 -717.63 -811.024 210.017 -658.217 1040.42Z" stroke="#1A8B9C" stroke-opacity="0.03" stroke-width="5"/>
<path opacity="0.0626762" fill-rule="evenodd" clip-rule="evenodd" d="M-645.355 1038.81C-583.637 1373.38 -449.579 1707.69 -256.94 1976.61C24.8281 2369.95 431.924 2623.4 921.286 2533.12C1745.21 2381.13 2832.1 1741.62 2680.11 917.689C2528.12 93.7626 791.516 -1009.56 -32.411 -857.567C-856.338 -705.577 -797.344 214.886 -645.355 1038.81Z" stroke="#1A8B9C" stroke-opacity="0.03" stroke-width="5"/>
<path opacity="0.050258" fill-rule="evenodd" clip-rule="evenodd" d="M-632.158 1037.89C-570.632 1369.78 -437.331 1701.36 -245.965 1968.01C33.9428 2358.03 438.077 2609.14 923.533 2519.15C1740.89 2367.63 2818.72 1732.17 2667.2 914.816C2515.68 97.4641 791.695 -995.717 -25.6569 -844.199C-843.009 -692.681 -783.676 220.534 -632.158 1037.89Z" stroke="#1A8B9C" stroke-opacity="0.03" stroke-width="5"/>
<path opacity="0.649295" fill-rule="evenodd" clip-rule="evenodd" d="M-619.18 1037.74C-557.685 1367.05 -424.956 1695.96 -234.683 1960.35C43.6246 2347.07 445.042 2595.76 926.724 2505.81C1737.72 2354.37 2806.6 1722.29 2655.16 911.291C2503.72 100.294 791.293 -982.402 -19.7043 -830.959C-830.701 -679.515 -770.624 226.742 -619.18 1037.74Z" stroke="#1A8B9C" stroke-opacity="0.03" stroke-width="5"/>
<path opacity="0.298208" fill-rule="evenodd" clip-rule="evenodd" d="M-605.916 1038.15C-544.336 1364.74 -412.089 1690.8 -222.868 1952.77C53.9027 2335.93 452.565 2581.95 930.267 2491.88C1734.56 2340.23 2793.86 1711.31 2642.21 907.012C2490.56 102.716 789.85 -968.409 -14.446 -816.759C-818.742 -665.108 -757.566 233.85 -605.916 1038.15Z" stroke="#1A8B9C" stroke-opacity="0.03" stroke-width="5"/>
<path opacity="0.599119" fill-rule="evenodd" clip-rule="evenodd" d="M-592.375 1039.2C-530.577 1363.06 -398.676 1686.24 -210.394 1945.7C65.0032 2325.22 461.023 2568.41 934.724 2478.02C1732.28 2325.83 2781.78 1699.62 2629.59 902.063C2477.4 104.505 787.916 -954.396 -9.64251 -802.209C-807.201 -650.022 -744.562 241.642 -592.375 1039.2Z" stroke="#1A8B9C" stroke-opacity="0.03" stroke-width="5"/>
<path opacity="0.525151" fill-rule="evenodd" clip-rule="evenodd" d="M-578.996 1040.96C-516.835 1362.15 -385.116 1682.48 -197.618 1939.44C76.6301 2315.29 470.212 2555.57 940.004 2464.65C1730.98 2311.57 2770.71 1687.48 2617.63 896.503C2464.55 105.525 785.405 -940.77 -5.57308 -787.688C-796.551 -634.606 -732.078 249.981 -578.996 1040.96Z" stroke="#1A8B9C" stroke-opacity="0.03" stroke-width="5"/>
<path opacity="0.624295" fill-rule="evenodd" clip-rule="evenodd" d="M-565.384 1043.23C-502.753 1361.63 -371.129 1678.97 -184.371 1933.29C88.7971 2305.26 479.922 2542.41 945.636 2450.8C1729.75 2296.56 2759.17 1674.37 2604.93 890.261C2450.69 106.148 781.97 -926.59 -2.1428 -772.35C-786.255 -618.111 -719.624 259.121 -565.384 1043.23Z" stroke="#1A8B9C" stroke-opacity="0.03" stroke-width="5"/>
<path opacity="0.335103" fill-rule="evenodd" clip-rule="evenodd" d="M-551.436 1046.07C-488.218 1361.64 -356.577 1675.93 -170.471 1927.51C101.742 2295.49 490.478 2529.34 952.056 2436.87C1729.2 2281.18 2748.03 1660.54 2592.35 883.395C2436.66 106.248 778.056 -912.251 0.908526 -756.566C-776.239 -600.88 -707.122 268.926 -551.436 1046.07Z" stroke="#1A8B9C" stroke-opacity="0.03" stroke-width="5"/>
<path opacity="0.391084" fill-rule="evenodd" clip-rule="evenodd" d="M-537.698 1049.58C-473.755 1362.41 -341.934 1673.7 -156.323 1922.57C115.166 2286.58 501.735 2517.07 959.303 2423.54C1729.7 2266.07 2738.06 1646.38 2580.59 875.984C2423.12 105.588 773.674 -898.415 3.27765 -740.943C-767.119 -583.471 -695.17 279.187 -537.698 1049.58Z" stroke="#1A8B9C" stroke-opacity="0.03" stroke-width="5"/>
<path opacity="0.705455" fill-rule="evenodd" clip-rule="evenodd" d="M-523.666 1053.52C-458.909 1363.47 -326.848 1671.59 -141.713 1917.58C129.08 2277.4 513.419 2504.3 966.77 2409.58C1730.07 2250.1 2727.35 1631.24 2567.88 867.945C2408.4 104.648 768.39 -883.885 5.09301 -724.41C-758.204 -564.934 -683.142 290.223 -523.666 1053.52Z" stroke="#1A8B9C" stroke-opacity="0.03" stroke-width="5"/>
<path opacity="0.038548" fill-rule="evenodd" clip-rule="evenodd" d="M-509.343 1057.98C-443.664 1365.03 -311.253 1669.95 -126.506 1913.01C143.72 2268.53 525.913 2491.72 975.022 2395.65C1731.17 2233.9 2717.19 1615.51 2555.44 859.356C2393.7 103.203 762.744 -869.308 6.59032 -707.561C-749.563 -545.815 -671.09 301.829 -509.343 1057.98Z" stroke="#1A8B9C" stroke-opacity="0.03" stroke-width="5"/>
<path opacity="0.640618" fill-rule="evenodd" clip-rule="evenodd" d="M-495.165 1063.03C-428.443 1367.24 -295.543 1668.99 -111.052 1909.12C158.8 2260.35 539.025 2479.75 983.979 2382.16C1733.14 2217.84 2707.93 1599.42 2543.62 850.264C2379.3 101.106 756.642 -855.09 7.48418 -690.774C-741.674 -526.458 -659.481 313.873 -495.165 1063.03Z" stroke="#1A8B9C" stroke-opacity="0.03" stroke-width="5"/>
<path opacity="0.908904" fill-rule="evenodd" clip-rule="evenodd" d="M-480.736 1068.46C-412.892 1369.7 -279.447 1668.15 -95.193 1905.21C174.311 2251.95 552.519 2467.38 993.142 2368.14C1735.01 2201.06 2698.07 1582.49 2530.99 840.625C2363.92 98.7575 749.762 -840.286 7.89426 -673.208C-733.973 -506.131 -647.813 326.59 -480.736 1068.46Z" stroke="#1A8B9C" stroke-opacity="0.03" stroke-width="5"/>
<path opacity="0.0254764" fill-rule="evenodd" clip-rule="evenodd" d="M-465.951 1074.32C-396.896 1372.56 -262.823 1667.63 -78.7455 1901.55C190.501 2243.69 566.729 2455 1002.96 2353.99C1737.43 2183.93 2688.49 1564.96 2518.43 830.49C2348.37 96.0217 742.545 -825.292 8.07626 -655.232C-726.392 -485.172 -636.01 339.848 -465.951 1074.32Z" stroke="#1A8B9C" stroke-opacity="0.03" stroke-width="5"/>
<path opacity="0.514004" fill-rule="evenodd" clip-rule="evenodd" d="M-451.347 1080.73C-380.967 1376.04 -246.13 1667.81 -62.0955 1898.6C207.088 2236.18 581.529 2443.33 1013.48 2340.39C1740.75 2167.07 2679.95 1547.19 2506.62 819.918C2333.3 92.6495 734.98 -810.76 7.71216 -637.436C-719.556 -464.113 -624.67 353.46 -451.347 1080.73Z" stroke="#1A8B9C" stroke-opacity="0.03" stroke-width="5"/>
<path opacity="0.143222" fill-rule="evenodd" clip-rule="evenodd" d="M-436.429 1087.41C-364.667 1379.66 -229.039 1667.95 -45.0573 1895.47C224.049 2228.27 596.605 2431.06 1024.07 2326.1C1743.78 2149.37 2670.53 1528.57 2493.81 808.865C2317.08 89.1553 726.676 -795.5 6.96625 -618.775C-712.743 -442.049 -613.155 367.704 -436.429 1087.41Z" stroke="#1A8B9C" stroke-opacity="0.03" stroke-width="5"/>
<path opacity="0.154757" fill-rule="evenodd" clip-rule="evenodd" d="M-421.191 1094.49C-347.968 1383.64 -211.47 1668.41 -27.4811 1892.61C241.636 2220.54 612.359 2418.87 1035.3 2311.77C1747.39 2131.44 2661.52 1509.48 2481.19 797.39C2300.86 85.2979 718.152 -780.15 6.06018 -599.825C-706.032 -419.499 -601.517 382.394 -421.191 1094.49Z" stroke="#1A8B9C" stroke-opacity="0.03" stroke-width="5"/>
<path opacity="0.524712" fill-rule="evenodd" clip-rule="evenodd" d="M-406.069 1102.02C-331.288 1388.14 -193.81 1669.43 -9.70569 1890.31C259.579 2213.38 628.615 2407.21 1047.11 2297.83C1751.72 2113.67 2653.28 1490.14 2469.12 785.528C2284.96 80.92 709.303 -765.119 4.69533 -580.958C-699.913 -396.796 -590.231 397.415 -406.069 1102.02Z" stroke="#1A8B9C" stroke-opacity="0.03" stroke-width="5"/>
<path opacity="0.882111" fill-rule="evenodd" clip-rule="evenodd" d="M-390.669 1109.78C-314.285 1392.73 -175.806 1670.4 8.40002 1887.83C277.834 2205.86 645.097 2395.02 1058.96 2283.29C1755.78 2095.18 2644.29 1470.08 2456.18 773.27C2268.07 76.4547 699.842 -749.46 3.02691 -561.351C-693.788 -373.242 -578.778 412.963 -390.669 1109.78Z" stroke="#1A8B9C" stroke-opacity="0.03" stroke-width="5"/>
<path opacity="0.409959" fill-rule="evenodd" clip-rule="evenodd" d="M-374.888 1117.82C-296.843 1397.56 -157.311 1671.54 27.0294 1885.46C296.659 2198.35 662.153 2382.72 1071.32 2268.57C1760.22 2076.36 2635.43 1449.56 2443.23 760.656C2251.03 71.7546 690.2 -733.571 1.29888 -541.37C-687.602 -349.169 -567.089 428.918 -374.888 1117.82Z" stroke="#1A8B9C" stroke-opacity="0.03" stroke-width="5"/>
<path opacity="0.692804" fill-rule="evenodd" clip-rule="evenodd" d="M-359.252 1126.29C-279.456 1402.89 -138.764 1673.25 45.8186 1883.68C315.803 2191.47 679.687 2371.03 1084.26 2254.31C1765.42 2057.8 2627.48 1428.88 2430.96 747.715C2234.45 66.5486 680.336 -718.094 -0.83007 -521.581C-681.997 -325.069 -555.765 445.123 -359.252 1126.29Z" stroke="#1A8B9C" stroke-opacity="0.03" stroke-width="5"/>
<path opacity="0.233027" fill-rule="evenodd" clip-rule="evenodd" d="M-343.282 1134.86C-261.714 1408.17 -119.871 1674.75 64.9099 1881.55C335.185 2184.03 697.325 2358.62 1097.08 2239.31C1770.15 2038.44 2618.49 1407.52 2417.62 734.46C2216.74 61.3961 669.915 -701.856 -3.14902 -500.98C-676.213 -300.104 -544.158 461.798 -343.282 1134.86Z" stroke="#1A8B9C" stroke-opacity="0.03" stroke-width="5"/>
<path opacity="0.499016" fill-rule="evenodd" clip-rule="evenodd" d="M-326.963 1143.67C-243.574 1413.66 -100.536 1676.41 84.475 1879.54C355.087 2176.64 715.498 2346.19 1110.4 2224.22C1775.29 2018.85 2609.76 1385.81 2404.4 720.923C2199.03 56.0362 659.429 -685.481 -5.45823 -480.121C-670.345 -274.76 -532.324 478.787 -326.963 1143.67Z" stroke="#1A8B9C" stroke-opacity="0.03" stroke-width="5"/>
<path opacity="0.735904" fill-rule="evenodd" clip-rule="evenodd" d="M-310.728 1152.82C-225.448 1419.54 -81.1323 1678.5 104.19 1877.96C375.257 2169.71 734.056 2334.18 1124.17 2209.44C1781 1999.42 2601.67 1363.95 2391.66 707.118C2181.64 50.2884 648.753 -669.384 -8.07646 -459.367C-664.906 -249.349 -520.745 495.994 -310.728 1152.82Z" stroke="#1A8B9C" stroke-opacity="0.03" stroke-width="5"/>
<path opacity="0.806033" fill-rule="evenodd" clip-rule="evenodd" d="M-294.196 1162.01C-207.017 1425.33 -61.4417 1680.36 124.146 1876.04C395.601 2162.27 752.661 2321.52 1137.8 2194.01C1786.25 1979.31 2592.67 1341.54 2377.97 693.085C2163.28 44.6335 637.647 -652.621 -10.8044 -437.926C-659.256 -223.23 -508.892 513.563 -294.196 1162.01Z" stroke="#1A8B9C" stroke-opacity="0.03" stroke-width="5"/>
<path opacity="0.175661" fill-rule="evenodd" clip-rule="evenodd" d="M-277.263 1171.34C-188.157 1431.19 -41.3049 1682.24 144.55 1874.08C416.395 2154.7 771.686 2308.66 1151.77 2178.33C1791.72 1958.89 2583.65 1318.79 2364.21 678.847C2144.77 38.9038 626.527 -635.597 -13.4159 -416.157C-653.359 -196.717 -496.703 531.393 -277.263 1171.34Z" stroke="#1A8B9C" stroke-opacity="0.03" stroke-width="5"/>
<path opacity="0.39144" fill-rule="evenodd" clip-rule="evenodd" d="M-260.443 1180.96C-169.346 1437.43 -21.139 1684.54 165.066 1872.58C437.423 2147.63 791.074 2296.31 1166.2 2163.06C1797.8 1938.72 2575.41 1295.99 2351.07 664.396C2126.73 32.7984 615.312 -618.937 -16.2851 -394.597C-647.883 -170.256 -484.783 549.367 -260.443 1180.96Z" stroke="#1A8B9C" stroke-opacity="0.03" stroke-width="5"/>
<path opacity="0.907734" fill-rule="evenodd" clip-rule="evenodd" d="M-243.281 1190.51C-150.213 1443.44 -0.698667 1686.46 185.779 1870.57C458.536 2139.87 810.373 2283.13 1180.33 2147C1803.21 1917.8 2565.99 1272.7 2336.79 649.814C2107.59 26.9327 603.739 -601.496 -19.1427 -372.297C-642.024 -143.099 -472.48 567.628 -243.281 1190.51Z" stroke="#1A8B9C" stroke-opacity="0.03" stroke-width="5"/>
<path opacity="0.96211" fill-rule="evenodd" clip-rule="evenodd" d="M-225.755 1200.14C-130.696 1449.49 20.1361 1688.39 206.888 1868.54C480.046 2132.03 830.051 2269.83 1194.78 2130.79C1808.86 1896.69 2556.67 1249.18 2322.57 635.098C2088.47 21.0173 592.26 -583.885 -21.821 -349.785C-635.902 -115.685 -459.856 586.059 -225.755 1200.14Z" stroke="#1A8B9C" stroke-opacity="0.03" stroke-width="5"/>
<path opacity="0.110623" fill-rule="evenodd" clip-rule="evenodd" d="M-208.291 1209.98C-111.198 1455.81 41.0063 1690.62 228.089 1866.82C501.731 2124.54 849.992 2256.86 1209.56 2114.84C1814.95 1875.74 2547.88 1225.62 2308.77 620.234C2069.66 14.8444 580.725 -566.521 -24.6641 -327.412C-630.054 -88.3023 -447.401 604.592 -208.291 1209.98Z" stroke="#1A8B9C" stroke-opacity="0.03" stroke-width="5"/>
<path opacity="0.979843" fill-rule="evenodd" clip-rule="evenodd" d="M-190.531 1219.68C-91.4334 1461.85 62.0859 1692.44 249.42 1864.59C523.429 2116.39 869.782 2243.15 1223.99 2098.2C1820.37 1854.15 2538.02 1201.7 2293.97 605.327C2049.93 8.9489 568.957 -548.474 -27.4212 -304.427C-623.799 -60.3812 -434.577 623.304 -190.531 1219.68Z" stroke="#1A8B9C" stroke-opacity="0.03" stroke-width="5"/>
<path opacity="0.7379" fill-rule="evenodd" clip-rule="evenodd" d="M-172.366 1229.35C-71.2697 1467.81 83.5475 1694.13 271.105 1862.18C545.443 2107.99 889.827 2229.15 1238.61 2081.27C1825.84 1832.31 2528.02 1177.61 2279.06 590.372C2030.09 3.13673 557.343 -530.15 -29.8919 -281.181C-617.127 -32.2124 -421.335 642.118 -172.366 1229.35Z" stroke="#1A8B9C" stroke-opacity="0.03" stroke-width="5"/>
<path opacity="0.7336" fill-rule="evenodd" clip-rule="evenodd" d="M-154.298 1239.21C-51.1634 1474.02 105.004 1696.12 292.847 1860.12C567.599 2100 910.117 2215.57 1253.56 2064.71C1831.8 1810.73 2518.68 1153.56 2264.7 575.317C2010.71 -2.92823 545.758 -512.162 -32.4871 -258.175C-610.732 -4.18784 -408.285 660.968 -154.298 1239.21Z" stroke="#1A8B9C" stroke-opacity="0.03" stroke-width="5"/>
<path opacity="0.0292091" fill-rule="evenodd" clip-rule="evenodd" d="M-135.907 1248.8C-30.7912 1479.81 126.639 1697.56 314.655 1857.4C589.662 2091.19 930.106 2201.09 1267.99 2047.33C1836.89 1788.47 2508.03 1129.22 2249.17 560.327C1990.3 -8.56809 534.019 -493.397 -34.8757 -234.531C-603.771 24.3358 -394.773 679.905 -135.907 1248.8Z" stroke="#1A8B9C" stroke-opacity="0.03" stroke-width="5"/>
<path opacity="0.260593" fill-rule="evenodd" clip-rule="evenodd" d="M-117.155 1258.32C-10.0716 1485.5 148.599 1698.86 336.763 1854.52C611.986 2082.19 950.31 2186.4 1282.6 2029.77C1842.06 1766.06 2497.36 1104.82 2233.65 545.355C1969.94 -14.1069 522.536 -474.454 -36.9265 -210.742C-596.389 52.9706 -380.867 698.858 -117.155 1258.32Z" stroke="#1A8B9C" stroke-opacity="0.03" stroke-width="5"/>
<path opacity="0.1821" fill-rule="evenodd" clip-rule="evenodd" d="M-98.465 1267.93C10.6053 1491.32 170.546 1700.34 358.893 1851.85C634.385 2073.44 970.652 2171.99 1297.4 2012.45C1847.54 1743.85 2487.14 1080.49 2218.53 530.354C1949.93 -19.785 511.124 -455.747 -39.0142 -187.142C-589.153 81.4636 -367.07 717.795 -98.465 1267.93Z" stroke="#1A8B9C" stroke-opacity="0.03" stroke-width="5"/>
<path opacity="0.475005" fill-rule="evenodd" clip-rule="evenodd" d="M-79.507 1277.22C31.4829 1496.7 192.597 1701.26 381.017 1848.53C656.615 2063.93 990.632 2156.76 1311.66 1994.42C1852.17 1721.09 2475.71 1056.01 2202.38 515.501C1929.05 -25.0078 499.674 -436.371 -40.8344 -163.038C-581.343 110.295 -352.84 736.714 -79.507 1277.22Z" stroke="#1A8B9C" stroke-opacity="0.03" stroke-width="5"/>
<path opacity="0.630651" fill-rule="evenodd" clip-rule="evenodd" d="M-60.1679 1286.33C52.7045 1501.85 214.944 1701.91 403.384 1844.91C679.011 2054.08 1010.69 2141.19 1325.93 1976.1C1856.69 1698.13 2464.06 1031.52 2186.09 500.759C1908.12 -30.0012 488.545 -416.732 -42.2154 -138.763C-572.975 139.205 -338.136 755.57 -60.1679 1286.33Z" stroke="#1A8B9C" stroke-opacity="0.03" stroke-width="5"/>
<path opacity="0.641168" fill-rule="evenodd" clip-rule="evenodd" d="M-40.9308 1295.52C73.841 1507.15 237.237 1702.76 425.738 1841.55C701.454 2044.56 1030.88 2125.99 1340.42 1958.12C1861.59 1675.47 2452.98 1007.19 2170.34 486.025C1887.69 -35.1413 477.557 -397.424 -43.6101 -114.778C-564.777 167.868 -323.577 774.354 -40.9308 1295.52Z" stroke="#1A8B9C" stroke-opacity="0.03" stroke-width="5"/>
<path opacity="0.0645833" fill-rule="evenodd" clip-rule="evenodd" d="M-21.3266 1304.48C95.2971 1512.16 259.789 1703.29 448.288 1837.84C724.001 2034.65 1051.08 2110.4 1354.84 1939.82C1866.29 1652.61 2441.58 982.892 2154.38 471.447C1867.17 -39.9988 466.908 -377.83 -44.5377 -90.6233C-555.983 196.583 -308.533 793.036 -21.3266 1304.48Z" stroke="#1A8B9C" stroke-opacity="0.03" stroke-width="5"/>
<path opacity="0.0514931" fill-rule="evenodd" clip-rule="evenodd" d="M-1.51666 1313.04C116.875 1516.66 282.354 1703.22 470.734 1833.48C746.273 2024 1070.81 2094.06 1368.65 1920.89C1870.12 1629.33 2429.06 958.595 2137.5 457.127C1845.94 -44.341 456.353 -357.665 -45.1157 -66.1049C-546.584 225.455 -293.077 811.567 -1.51666 1313.04Z" stroke="#1A8B9C" stroke-opacity="0.03" stroke-width="5"/>
<path opacity="0.9618" fill-rule="evenodd" clip-rule="evenodd" d="M18.236 1321.54C138.385 1521.15 304.848 1703.17 493.114 1829.17C768.486 2013.45 1090.5 2077.87 1382.47 1902.13C1874.05 1606.25 2416.77 934.484 2120.88 442.907C1824.99 -48.6697 445.976 -337.676 -45.6012 -41.7874C-537.178 254.101 -277.653 829.963 18.236 1321.54Z" stroke="#1A8B9C" stroke-opacity="0.03" stroke-width="5"/>
<path opacity="0.161413" fill-rule="evenodd" clip-rule="evenodd" d="M38.1674 1329.59C159.98 1525.08 327.308 1702.49 515.337 1824.17C790.363 2002.16 1109.68 2060.94 1395.62 1882.77C1877.07 1582.78 2403.35 910.448 2103.37 429.003C1803.38 -52.4417 435.751 -317.146 -45.6939 -17.1607C-527.139 282.825 -261.818 848.143 38.1674 1329.59Z" stroke="#1A8B9C" stroke-opacity="0.03" stroke-width="5"/>
<path opacity="0.807895" fill-rule="evenodd" clip-rule="evenodd" d="M58.4505 1337.28C181.853 1528.61 349.96 1701.36 537.666 1818.72C812.219 1990.39 1128.7 2043.56 1408.56 1863.06C1879.75 1559.16 2389.51 886.573 2085.61 415.384C1781.71 -55.8044 425.993 -296.325 -45.1958 7.57544C-516.385 311.476 -245.45 866.092 58.4505 1337.28Z" stroke="#1A8B9C" stroke-opacity="0.03" stroke-width="5"/>
<path opacity="0.645738" fill-rule="evenodd" clip-rule="evenodd" d="M78.995 1344.73C203.938 1531.9 372.77 1700 560.109 1813.06C834.124 1978.42 1147.73 2026.03 1421.49 1843.28C1882.41 1535.58 2375.7 862.923 2068.01 402C1760.32 -58.9239 416.732 -275.465 -44.1914 32.2283C-505.115 339.922 -228.699 883.81 78.995 1344.73Z" stroke="#1A8B9C" stroke-opacity="0.03" stroke-width="5"/>
<path opacity="0.658817" fill-rule="evenodd" clip-rule="evenodd" d="M99.4527 1352.07C225.912 1535.11 395.456 1698.61 582.423 1807.41C855.895 1966.54 1166.64 2008.65 1434.36 1823.68C1885.12 1512.25 2362.11 839.543 2050.68 388.785C1739.25 -61.9728 407.716 -254.804 -43.0414 56.6255C-493.799 368.055 -211.977 901.316 99.4527 1352.07Z" stroke="#1A8B9C" stroke-opacity="0.03" stroke-width="5"/>
<path opacity="0.460366" fill-rule="evenodd" clip-rule="evenodd" d="M120.029 1358.87C247.892 1537.69 418.011 1696.52 604.472 1801.03C877.203 1953.9 1184.9 1990.54 1446.46 1803.52C1886.84 1488.63 2347.38 816.383 2032.49 375.999C1717.6 -64.3855 398.961 -233.662 -41.4235 81.2245C-481.808 396.111 -194.858 918.481 120.029 1358.87Z" stroke="#1A8B9C" stroke-opacity="0.03" stroke-width="5"/>
<path opacity="0.785017" fill-rule="evenodd" clip-rule="evenodd" d="M140.501 1365.51C269.739 1540.17 440.411 1694.39 626.357 1794.66C898.336 1941.33 1202.99 1972.58 1458.45 1783.55C1888.57 1465.28 2332.84 793.533 2014.57 363.416C1696.3 -66.7001 390.478 -212.729 -39.6382 105.542C-469.755 423.812 -177.769 935.398 140.501 1365.51Z" stroke="#1A8B9C" stroke-opacity="0.03" stroke-width="5"/>
<path opacity="0.953899" fill-rule="evenodd" clip-rule="evenodd" d="M161.186 1371.86C291.735 1542.34 462.896 1691.96 648.272 1788.02C919.417 1928.53 1220.98 1954.46 1470.34 1763.51C1890.19 1442.01 2318.28 770.988 1996.78 351.139C1675.28 -68.7101 382.534 -191.771 -37.3147 129.728C-457.164 451.228 -160.313 952.009 161.186 1371.86Z" stroke="#1A8B9C" stroke-opacity="0.03" stroke-width="5"/>
<path opacity="0.614257" fill-rule="evenodd" clip-rule="evenodd" d="M181.986 1377.47C313.695 1543.68 485.166 1688.62 669.796 1780.44C939.851 1914.75 1238.06 1935.4 1481.17 1742.76C1890.49 1418.4 2302.22 748.764 1977.86 339.442C1653.51 -69.881 374.931 -170.21 -34.3913 154.147C-443.714 478.504 -142.371 968.15 181.986 1377.47Z" stroke="#1A8B9C" stroke-opacity="0.03" stroke-width="5"/>
<path opacity="0.328121" fill-rule="evenodd" clip-rule="evenodd" d="M202.989 1382.72C335.781 1544.65 507.482 1684.93 691.299 1772.54C960.164 1900.69 1254.95 1916.16 1491.81 1721.93C1890.61 1394.9 2286.08 726.916 1959.05 328.117C1632.03 -70.6809 367.931 -148.622 -30.8673 178.403C-429.666 505.429 -124.037 983.917 202.989 1382.72Z" stroke="#1A8B9C" stroke-opacity="0.03" stroke-width="5"/>
<path opacity="0.607089" fill-rule="evenodd" clip-rule="evenodd" d="M223.823 1387.82C357.672 1545.55 529.588 1681.24 712.594 1764.71C980.273 1886.8 1271.68 1897.18 1502.38 1701.4C1890.82 1371.77 2270.29 705.452 1940.66 317.018C1611.03 -71.4151 361.244 -127.356 -27.1891 202.27C-415.623 531.896 -105.803 999.391 223.823 1387.82Z" stroke="#1A8B9C" stroke-opacity="0.03" stroke-width="5"/>
<path opacity="0.0949465" fill-rule="evenodd" clip-rule="evenodd" d="M244.679 1392.23C379.437 1545.67 551.401 1676.73 733.437 1756.06C999.698 1872.09 1287.51 1877.45 1511.95 1680.34C1889.84 1348.48 2253.25 684.418 1921.39 306.526C1589.52 -71.3655 354.958 -105.661 -22.9342 226.205C-400.826 558.07 -87.1868 1014.33 244.679 1392.23Z" stroke="#1A8B9C" stroke-opacity="0.03" stroke-width="5"/>
<path opacity="0.572989" fill-rule="evenodd" clip-rule="evenodd" d="M265.715 1396.14C401.282 1545.3 573.188 1671.73 754.162 1746.95C1018.87 1856.97 1302.98 1857.42 1521.15 1659.13C1888.48 1325.27 2235.92 663.84 1902.07 296.511C1568.21 -70.8184 349.327 -83.8801 -18.0017 249.976C-385.331 583.833 -68.1412 1028.81 265.715 1396.14Z" stroke="#1A8B9C" stroke-opacity="0.03" stroke-width="5"/>
<path opacity="0.400771" fill-rule="evenodd" clip-rule="evenodd" d="M286.523 1399.98C422.885 1544.94 594.737 1666.85 774.675 1738.05C1037.87 1842.19 1318.36 1837.82 1530.39 1638.37C1887.38 1302.55 2219.19 643.681 1883.38 286.69C1547.57 -70.3002 344.016 -62.563 -12.9744 273.251C-369.965 609.065 -49.2906 1042.99 286.523 1399.98Z" stroke="#1A8B9C" stroke-opacity="0.03" stroke-width="5"/>
<path opacity="0.0798206" fill-rule="evenodd" clip-rule="evenodd" d="M307.308 1402.99C444.291 1543.68 615.894 1661.02 794.612 1728.2C1056.02 1826.46 1332.65 1817.38 1538.43 1617.02C1884.89 1279.68 2201.03 624.065 1863.69 277.601C1526.34 -68.8633 339.176 -40.7824 -7.28826 296.562C-353.752 633.906 -30.0364 1056.53 307.308 1402.99Z" stroke="#1A8B9C" stroke-opacity="0.03" stroke-width="5"/>
<path opacity="0.338499" fill-rule="evenodd" clip-rule="evenodd" d="M328.197 1405.56C465.711 1541.99 636.976 1654.81 814.404 1718.03C1073.92 1810.49 1346.63 1796.82 1546.18 1595.68C1882.17 1257.03 2182.82 604.962 1844.17 268.974C1505.51 -67.0145 335.01 -19.0718 -0.97866 319.582C-336.967 658.236 -10.4571 1069.57 328.197 1405.56Z" stroke="#1A8B9C" stroke-opacity="0.03" stroke-width="5"/>
<path opacity="0.165684" fill-rule="evenodd" clip-rule="evenodd" d="M348.843 1407.98C486.858 1540.24 657.77 1648.63 833.912 1707.96C1091.55 1794.75 1360.38 1776.6 1553.84 1574.72C1879.55 1234.84 2165.03 586.326 1825.14 260.614C1485.26 -65.0981 331.187 2.23518 5.47467 342.122C-320.237 682.008 8.95687 1082.27 348.843 1407.98Z" stroke="#1A8B9C" stroke-opacity="0.03" stroke-width="5"/>
<path opacity="0.122588" fill-rule="evenodd" clip-rule="evenodd" d="M369.373 1409.61C507.724 1537.65 678.102 1641.59 852.797 1697.07C1108.32 1778.23 1373.08 1755.72 1560.36 1553.36C1875.69 1212.65 2146.06 568.313 1805.34 252.986C1464.63 -62.3408 327.863 23.8358 12.5361 364.55C-302.791 705.264 28.6589 1094.28 369.373 1409.61Z" stroke="#1A8B9C" stroke-opacity="0.03" stroke-width="5"/>
<path opacity="0.607219" fill-rule="evenodd" clip-rule="evenodd" d="M389.97 1410.71C528.547 1534.55 698.281 1634.08 871.438 1685.77C1124.71 1761.38 1385.31 1734.65 1566.45 1531.95C1871.43 1190.68 2126.88 550.893 1785.61 245.913C1444.33 -59.0673 325.255 45.4013 20.2749 386.673C-284.705 727.944 48.6989 1105.73 389.97 1410.71Z" stroke="#1A8B9C" stroke-opacity="0.03" stroke-width="5"/>
<path opacity="0.779107" fill-rule="evenodd" clip-rule="evenodd" d="M410.272 1411.74C549.062 1531.48 718.159 1626.71 889.81 1674.71C1140.88 1744.92 1397.41 1714.07 1572.56 1511.07C1867.45 1169.27 2108.36 533.942 1766.56 239.051C1424.77 -55.8392 322.967 66.4339 28.0761 408.23C-266.814 750.026 68.4756 1116.85 410.272 1411.74Z" stroke="#1A8B9C" stroke-opacity="0.03" stroke-width="5"/>
<path opacity="0.738465" fill-rule="evenodd" clip-rule="evenodd" d="M430.397 1411.86C569.213 1527.46 737.471 1618.39 907.432 1662.74C1156.03 1727.6 1408.28 1692.79 1577.36 1489.75C1862.06 1147.89 2088.51 517.724 1746.65 233.032C1404.79 -51.6602 321.234 87.7703 36.5423 429.63C-248.15 771.491 88.5367 1127.17 430.397 1411.86Z" stroke="#1A8B9C" stroke-opacity="0.03" stroke-width="5"/>
<path opacity="0.476908" fill-rule="evenodd" clip-rule="evenodd" d="M450.52 1411.53C589.268 1523.04 756.597 1609.73 924.804 1650.49C1170.84 1710.12 1418.75 1671.49 1581.84 1468.55C1856.44 1126.85 2068.7 502.125 1727.01 227.528C1385.32 -47.0696 320.206 108.928 45.6082 450.62C-228.989 792.313 108.827 1136.94 450.52 1411.53Z" stroke="#1A8B9C" stroke-opacity="0.03" stroke-width="5"/>
<path opacity="0.0832195" fill-rule="evenodd" clip-rule="evenodd" d="M470.324 1411.07C608.977 1518.57 775.37 1601.13 941.838 1638.41C1185.33 1692.94 1428.98 1650.62 1586.22 1447.81C1850.96 1106.35 2049.41 487.035 1707.95 222.293C1366.49 -42.4485 319.508 129.596 54.7661 471.054C-209.976 812.512 128.866 1146.33 470.324 1411.07Z" stroke="#1A8B9C" stroke-opacity="0.03" stroke-width="5"/>
<path opacity="0.881839" fill-rule="evenodd" clip-rule="evenodd" d="M489.866 1409.77C628.251 1513.26 793.525 1591.7 958.097 1625.56C1198.81 1675.09 1438.02 1629.22 1589.39 1426.81C1844.24 1086.01 2029.04 472.726 1688.24 217.876C1347.45 -36.9748 319.365 150.41 64.5141 491.207C-190.336 832.004 149.069 1154.92 489.866 1409.77Z" stroke="#1A8B9C" stroke-opacity="0.03" stroke-width="5"/>
<path opacity="0.0849431" fill-rule="evenodd" clip-rule="evenodd" d="M509.361 1407.94C647.367 1507.45 811.416 1581.85 974.01 1612.36C1211.83 1656.99 1446.54 1607.75 1592.09 1405.89C1837.15 1066.03 2008.58 459.107 1668.71 214.049C1328.85 -31.0078 319.951 171.063 74.8941 510.927C-170.163 850.792 169.496 1162.88 509.361 1407.94Z" stroke="#1A8B9C" stroke-opacity="0.03" stroke-width="5"/>
<path opacity="0.125608" fill-rule="evenodd" clip-rule="evenodd" d="M528.497 1406.08C666.119 1501.73 828.962 1572.2 989.622 1599.48C1224.62 1639.38 1454.94 1586.87 1594.85 1385.57C1830.4 1046.65 1988.87 445.966 1649.95 210.414C1311.03 -25.1373 320.82 191.116 85.2681 530.035C-150.284 868.954 189.578 1170.53 528.497 1406.08Z" stroke="#1A8B9C" stroke-opacity="0.03" stroke-width="5"/>
<path opacity="0.435557" fill-rule="evenodd" clip-rule="evenodd" d="M547.304 1403.3C684.351 1495.08 845.787 1561.65 1004.34 1585.76C1236.25 1621.02 1462 1565.43 1596.24 1364.97C1822.26 1027.47 1967.97 433.704 1630.47 207.687C1292.97 -18.329 322.282 211.309 96.2651 548.811C-129.751 886.313 209.802 1177.28 547.304 1403.3Z" stroke="#1A8B9C" stroke-opacity="0.03" stroke-width="5"/>
<path opacity="0.37595" fill-rule="evenodd" clip-rule="evenodd" d="M566.008 1400.08C702.389 1488.04 862.336 1550.8 1018.73 1571.83C1247.48 1602.59 1468.63 1544.08 1597.29 1344.6C1813.93 1008.74 1947.23 422.124 1611.36 205.488C1275.5 -11.1468 324.435 231.217 107.8 567.079C-108.836 902.941 230.146 1183.44 566.008 1400.08Z" stroke="#1A8B9C" stroke-opacity="0.03" stroke-width="5"/>
<path opacity="0.685276" fill-rule="evenodd" clip-rule="evenodd" d="M584.328 1396.78C720.027 1481.05 878.493 1540.11 1032.76 1558.17C1258.39 1584.58 1475.04 1523.27 1598.3 1324.78C1805.83 990.598 1927.11 411.051 1592.93 203.523C1258.74 -4.00423 326.869 250.558 119.341 584.742C-88.1862 918.925 250.144 1189.25 584.328 1396.78Z" stroke="#1A8B9C" stroke-opacity="0.03" stroke-width="5"/>
<path opacity="0.892256" fill-rule="evenodd" clip-rule="evenodd" d="M602.248 1392.64C737.092 1473.23 893.9 1528.64 1045.89 1543.81C1268.2 1566 1480.19 1502.07 1598.06 1304.84C1796.52 972.763 1906.05 400.869 1573.97 202.416C1241.89 3.9631 329.867 269.9 131.414 601.978C-67.0394 934.057 270.17 1194.19 602.248 1392.64Z" stroke="#1A8B9C" stroke-opacity="0.03" stroke-width="5"/>
<path opacity="0.348159" fill-rule="evenodd" clip-rule="evenodd" d="M620.017 1388.01C753.903 1464.97 908.958 1516.83 1058.6 1529.2C1277.49 1547.3 1484.8 1480.94 1597.37 1285.1C1786.9 955.384 1885.03 391.426 1555.31 201.895C1225.6 12.3651 333.568 288.967 144.037 618.686C-45.493 948.405 290.298 1198.48 620.017 1388.01Z" stroke="#1A8B9C" stroke-opacity="0.03" stroke-width="5"/>
<path opacity="0.341932" fill-rule="evenodd" clip-rule="evenodd" d="M637.381 1383.42C770.318 1456.88 923.657 1505.31 1071.02 1515C1286.57 1529.17 1489.34 1460.47 1596.79 1266.03C1777.71 938.644 1864.87 382.429 1537.48 201.511C1210.1 20.5932 337.48 307.381 156.562 634.763C-24.3556 962.144 310 1202.5 637.381 1383.42Z" stroke="#1A8B9C" stroke-opacity="0.03" stroke-width="5"/>
<path opacity="0.765055" fill-rule="evenodd" clip-rule="evenodd" d="M654.278 1377.92C786.079 1447.9 937.51 1492.95 1082.44 1500.05C1294.42 1510.43 1492.48 1439.61 1594.85 1246.83C1767.19 922.245 1843.67 374.403 1519.09 202.056C1194.5 29.7088 341.978 325.783 169.631 650.367C-2.71649 974.95 329.695 1205.57 654.278 1377.92Z" stroke="#1A8B9C" stroke-opacity="0.03" stroke-width="5"/>
<path opacity="0.356356" fill-rule="evenodd" clip-rule="evenodd" d="M670.986 1372.03C801.57 1438.61 951.027 1480.39 1093.48 1485C1301.83 1491.74 1495.2 1418.95 1592.59 1227.95C1756.56 906.364 1822.74 367.076 1501.15 203.104C1179.57 39.132 347.12 343.809 183.148 665.396C19.1758 986.982 349.4 1208.06 670.986 1372.03Z" stroke="#1A8B9C" stroke-opacity="0.03" stroke-width="5"/>
<path opacity="0.289867" fill-rule="evenodd" clip-rule="evenodd" d="M687.27 1366.15C816.639 1429.45 964.148 1468.08 1104.17 1470.3C1308.98 1473.55 1497.78 1398.92 1590.37 1209.7C1746.26 891.102 1802.56 360.211 1483.96 204.317C1165.37 48.4232 352.461 361.214 196.568 679.807C40.6739 998.4 368.677 1210.25 687.27 1366.15Z" stroke="#1A8B9C" stroke-opacity="0.03" stroke-width="5"/>
<path opacity="0.492147" fill-rule="evenodd" clip-rule="evenodd" d="M703.034 1359.46C831.02 1419.52 976.417 1455.07 1113.88 1455.01C1314.95 1454.93 1499.06 1378.65 1586.91 1191.45C1734.81 876.26 1781.57 354.296 1466.38 206.389C1151.19 58.4808 358.338 378.492 210.43 693.682C62.5226 1008.87 387.844 1211.55 703.034 1359.46Z" stroke="#1A8B9C" stroke-opacity="0.03" stroke-width="5"/>
<path opacity="0.89062" fill-rule="evenodd" clip-rule="evenodd" d="M718.568 1352.34C845.083 1409.24 988.289 1441.81 1123.15 1439.58C1320.41 1436.31 1499.83 1358.56 1583.05 1173.51C1723.16 861.943 1760.76 349.12 1449.2 209.006C1137.63 68.8911 364.858 395.404 224.743 706.97C84.6286 1018.54 407.002 1212.23 718.568 1352.34Z" stroke="#1A8B9C" stroke-opacity="0.03" stroke-width="5"/>
<path opacity="0.0309115" fill-rule="evenodd" clip-rule="evenodd" d="M733.676 1345.35C858.747 1399.21 999.82 1428.94 1132.16 1424.63C1325.72 1418.33 1500.6 1339.21 1579.38 1156.27C1712.03 848.259 1740.89 344.318 1432.88 211.676C1124.87 79.0348 371.494 411.635 238.853 719.643C106.211 1027.65 425.668 1212.71 733.676 1345.35Z" stroke="#1A8B9C" stroke-opacity="0.03" stroke-width="5"/>
<path opacity="0.602663" fill-rule="evenodd" clip-rule="evenodd" d="M748.205 1337.51C871.654 1388.38 1010.42 1415.34 1140.09 1409.06C1329.76 1399.89 1499.98 1319.61 1574.39 1139.04C1699.65 835.024 1720.15 340.528 1416.13 215.259C1112.12 89.9904 378.675 427.727 253.406 731.743C128.137 1035.76 444.188 1212.24 748.205 1337.51Z" stroke="#1A8B9C" stroke-opacity="0.03" stroke-width="5"/>
<path opacity="0.395273" fill-rule="evenodd" clip-rule="evenodd" d="M762.488 1329.35C884.251 1377.31 1020.66 1401.61 1147.64 1393.48C1333.39 1381.58 1498.98 1300.31 1569.14 1122.21C1687.26 822.346 1699.78 337.41 1399.92 219.291C1100.06 101.172 386.426 443.379 268.307 743.241C150.188 1043.1 462.627 1211.23 762.488 1329.35Z" stroke="#1A8B9C" stroke-opacity="0.03" stroke-width="5"/>
<path opacity="0.378445" fill-rule="evenodd" clip-rule="evenodd" d="M776.334 1321.29C896.431 1366.47 1030.53 1388.24 1154.9 1378.35C1336.82 1363.88 1497.94 1281.7 1564.03 1106.04C1675.3 810.275 1680.26 334.667 1384.5 223.393C1088.74 112.119 394.275 458.385 283.001 754.146C171.727 1049.91 480.573 1210.01 776.334 1321.29Z" stroke="#1A8B9C" stroke-opacity="0.03" stroke-width="5"/>
<path opacity="0.576683" fill-rule="evenodd" clip-rule="evenodd" d="M789.57 1312.48C907.847 1354.94 1039.48 1374.26 1161.13 1362.73C1339.06 1345.86 1495.61 1262.98 1557.72 1089.98C1662.28 798.702 1660.06 332.889 1368.78 228.323C1077.51 123.757 402.604 473.167 298.038 764.446C193.472 1055.72 498.291 1207.92 789.57 1312.48Z" stroke="#1A8B9C" stroke-opacity="0.03" stroke-width="5"/>
<path opacity="0.124463" fill-rule="evenodd" clip-rule="evenodd" d="M802.528 1303.32C918.912 1343.15 1048.03 1360.13 1166.92 1347.06C1340.82 1327.94 1492.83 1244.53 1551.08 1074.3C1649.16 787.683 1640.16 331.806 1353.54 233.731C1066.93 135.655 411.494 487.523 313.419 774.14C215.343 1060.76 515.911 1205.25 802.528 1303.32Z" stroke="#1A8B9C" stroke-opacity="0.03" stroke-width="5"/>
<path opacity="0.0652009" fill-rule="evenodd" clip-rule="evenodd" d="M815.071 1294.39C929.61 1331.71 1056.29 1346.47 1172.52 1331.96C1342.52 1310.73 1490.17 1226.86 1544.75 1059.33C1636.65 777.258 1621.27 330.992 1339.19 239.092C1057.12 147.192 420.396 501.201 328.497 783.273C236.597 1065.35 532.999 1202.49 815.071 1294.39Z" stroke="#1A8B9C" stroke-opacity="0.03" stroke-width="5"/>
<path opacity="0.315086" fill-rule="evenodd" clip-rule="evenodd" d="M826.954 1284.68C939.485 1319.54 1063.57 1332.18 1177.02 1316.34C1342.96 1293.17 1486.14 1209.07 1537.14 1044.48C1623.01 767.35 1601.64 331.186 1324.51 245.32C1047.38 159.455 429.777 514.649 343.911 791.777C258.046 1068.9 549.827 1198.81 826.954 1284.68Z" stroke="#1A8B9C" stroke-opacity="0.03" stroke-width="5"/>
<path opacity="0.0150741" fill-rule="evenodd" clip-rule="evenodd" d="M838.568 1274.72C949.041 1307.23 1070.5 1317.86 1181.16 1300.8C1343.03 1275.84 1481.81 1191.65 1529.36 1030.06C1609.43 757.999 1582.46 331.99 1310.4 251.924C1038.34 171.859 439.642 527.627 359.577 799.688C279.512 1071.75 566.508 1194.66 838.568 1274.72Z" stroke="#1A8B9C" stroke-opacity="0.03" stroke-width="5"/>
<path opacity="0.120316" fill-rule="evenodd" clip-rule="evenodd" d="M849.764 1264.98C958.223 1295.25 1077.12 1303.98 1185.09 1285.78C1343.01 1259.17 1477.55 1174.95 1521.83 1016.31C1596.4 749.21 1564.2 333.052 1297.1 258.49C1030 183.928 449.498 539.968 374.936 807.068C300.374 1074.17 582.664 1190.41 849.764 1264.98Z" stroke="#1A8B9C" stroke-opacity="0.03" stroke-width="5"/>
<path opacity="0.0704973" fill-rule="evenodd" clip-rule="evenodd" d="M860.294 1254.55C966.597 1282.66 1082.8 1289.58 1187.98 1270.37C1341.82 1242.27 1472.05 1158.24 1513.16 1002.75C1582.38 740.955 1545.38 335.055 1283.58 265.833C1021.79 196.611 459.764 552.022 390.542 813.814C321.32 1075.61 598.502 1185.33 860.294 1254.55Z" stroke="#1A8B9C" stroke-opacity="0.03" stroke-width="5"/>
<path opacity="0.137752" fill-rule="evenodd" clip-rule="evenodd" d="M870.534 1243.85C974.628 1269.89 1088.11 1275.12 1190.48 1254.99C1340.21 1225.55 1466.18 1141.85 1504.26 989.595C1568.37 733.245 1526.93 337.678 1270.58 273.571C1014.23 209.463 470.502 563.628 406.395 819.977C342.288 1076.33 614.185 1179.75 870.534 1243.85Z" stroke="#1A8B9C" stroke-opacity="0.03" stroke-width="5"/>
<path opacity="0.908237" fill-rule="evenodd" clip-rule="evenodd" d="M880.397 1233.48C982.347 1257.56 1093.19 1261.21 1192.87 1240.24C1338.66 1209.58 1460.56 1126.25 1495.77 977.131C1555.05 726.061 1509.52 340.444 1258.45 281.157C1007.38 221.87 481.147 574.591 421.861 825.661C362.574 1076.73 629.327 1174.2 880.397 1233.48Z" stroke="#1A8B9C" stroke-opacity="0.03" stroke-width="5"/>
<path opacity="0.637557" fill-rule="evenodd" clip-rule="evenodd" d="M889.961 1222.85C989.713 1245.05 1097.89 1247.22 1194.85 1225.52C1336.68 1193.78 1454.55 1110.96 1487.02 965.056C1541.7 719.399 1492.44 343.81 1246.78 289.13C1001.13 234.45 492.229 585.128 437.549 830.786C382.869 1076.44 644.304 1168.17 889.961 1222.85Z" stroke="#1A8B9C" stroke-opacity="0.03" stroke-width="5"/>
<path opacity="0.293211" fill-rule="evenodd" clip-rule="evenodd" d="M898.868 1211.66C996.307 1232.06 1101.7 1232.85 1195.89 1210.52C1333.66 1177.87 1447.45 1095.75 1477.3 953.233C1527.55 713.271 1474.97 348.019 1235.01 297.764C995.049 247.51 503.633 595.333 453.378 835.294C403.124 1075.26 658.907 1161.4 898.868 1211.66Z" stroke="#1A8B9C" stroke-opacity="0.03" stroke-width="5"/>
<path opacity="0.958439" fill-rule="evenodd" clip-rule="evenodd" d="M907.373 1200.66C1002.54 1219.38 1105.22 1218.89 1196.72 1196.01C1330.54 1162.55 1440.41 1081.2 1467.78 942.002C1513.88 707.635 1458.29 352.439 1223.92 306.349C989.552 260.258 514.976 604.974 468.886 839.341C422.796 1073.71 673.006 1154.57 907.373 1200.66Z" stroke="#1A8B9C" stroke-opacity="0.03" stroke-width="5"/>
<path opacity="0.566329" fill-rule="evenodd" clip-rule="evenodd" d="M915.226 1189.16C1008.02 1206.26 1107.89 1204.59 1196.62 1181.27C1326.41 1147.17 1432.34 1066.76 1457.35 931.037C1499.46 702.526 1441.26 357.663 1212.75 315.553C984.235 273.444 526.607 614.275 484.498 842.786C442.389 1071.3 686.715 1147.05 915.226 1189.16Z" stroke="#1A8B9C" stroke-opacity="0.03" stroke-width="5"/>
<path opacity="0.72211" fill-rule="evenodd" clip-rule="evenodd" d="M922.775 1177.37C1013.13 1192.94 1110.16 1190.18 1196.11 1166.53C1321.83 1131.93 1423.85 1052.6 1446.62 920.439C1484.95 697.929 1424.5 363.497 1201.99 325.162C979.484 286.827 538.676 623.167 500.342 845.678C462.007 1068.19 700.264 1139.03 922.775 1177.37Z" stroke="#1A8B9C" stroke-opacity="0.03" stroke-width="5"/>
<path opacity="0.901729" fill-rule="evenodd" clip-rule="evenodd" d="M930.127 1165.58C1018.04 1179.71 1112.24 1175.97 1195.46 1152.06C1317.17 1117.07 1415.38 1038.92 1436.04 910.32C1470.83 693.808 1408.46 369.687 1191.94 334.898C975.433 300.11 551.031 631.582 516.242 848.094C481.454 1064.61 713.615 1130.8 930.127 1165.58Z" stroke="#1A8B9C" stroke-opacity="0.03" stroke-width="5"/>
<path opacity="0.597914" fill-rule="evenodd" clip-rule="evenodd" d="M937.114 1154.04C1022.65 1166.82 1114.09 1162.19 1194.65 1138.08C1312.48 1102.81 1407.02 1025.86 1425.72 900.757C1457.2 690.121 1393.18 376.014 1182.54 344.533C971.905 313.051 563.273 639.476 531.792 850.112C500.311 1060.75 726.478 1122.56 937.114 1154.04Z" stroke="#1A8B9C" stroke-opacity="0.03" stroke-width="5"/>
<path opacity="0.280006" fill-rule="evenodd" clip-rule="evenodd" d="M943.466 1142.03C1026.52 1153.55 1115.12 1148.12 1192.97 1123.91C1306.83 1088.51 1397.7 1012.94 1414.54 891.462C1442.89 686.936 1377.59 383.083 1173.07 354.73C968.543 326.377 575.751 647.034 547.398 851.56C519.045 1056.09 738.94 1113.68 943.466 1142.03Z" stroke="#1A8B9C" stroke-opacity="0.03" stroke-width="5"/>
<path opacity="0.383344" fill-rule="evenodd" clip-rule="evenodd" d="M949.468 1130.27C1030.09 1140.6 1115.92 1134.46 1191.14 1110.22C1301.16 1074.77 1388.49 1000.61 1403.61 882.694C1429.06 684.156 1362.74 390.267 1164.2 364.817C965.664 339.367 588.103 654.101 562.653 852.639C537.203 1051.18 750.93 1104.82 949.468 1130.27Z" stroke="#1A8B9C" stroke-opacity="0.03" stroke-width="5"/>
<path opacity="0.239377" fill-rule="evenodd" clip-rule="evenodd" d="M954.853 1118.08C1032.95 1127.31 1115.94 1120.54 1188.49 1096.37C1294.6 1061.02 1378.38 988.432 1391.88 874.196C1414.6 681.86 1347.62 398.146 1155.28 375.425C962.947 352.703 600.657 660.836 577.936 853.173C555.214 1045.51 762.516 1095.36 954.853 1118.08Z" stroke="#1A8B9C" stroke-opacity="0.03" stroke-width="5"/>
<path opacity="0.750143" fill-rule="evenodd" clip-rule="evenodd" d="M959.959 1105.64C1035.49 1113.84 1115.59 1106.53 1185.45 1082.52C1287.63 1047.39 1367.89 976.498 1379.87 866.024C1400.05 680.02 1332.73 406.573 1146.73 386.396C960.727 366.219 613.599 667.209 593.422 853.213C573.245 1039.22 773.955 1085.47 959.959 1105.64Z" stroke="#1A8B9C" stroke-opacity="0.03" stroke-width="5"/>
<path opacity="0.802542" fill-rule="evenodd" clip-rule="evenodd" d="M964.947 1093.3C1037.93 1100.54 1115.18 1092.78 1182.4 1068.98C1280.72 1034.17 1357.56 965.031 1368.15 858.288C1385.98 678.567 1318.59 415.215 1138.87 397.385C959.146 379.555 626.74 673.16 608.909 852.881C591.079 1032.6 785.226 1075.47 964.947 1093.3Z" stroke="#1A8B9C" stroke-opacity="0.03" stroke-width="5"/>
<path opacity="0.660441" fill-rule="evenodd" clip-rule="evenodd" d="M969.636 1081.22C1040.12 1087.59 1114.6 1079.45 1179.26 1055.91C1273.84 1021.49 1347.41 954.12 1356.72 851.027C1372.4 677.452 1305.13 423.899 1131.56 408.218C957.984 392.537 639.715 678.674 624.034 852.249C608.353 1025.82 796.061 1065.54 969.636 1081.22Z" stroke="#1A8B9C" stroke-opacity="0.03" stroke-width="5"/>
<path opacity="0.0848312" fill-rule="evenodd" clip-rule="evenodd" d="M973.742 1068.77C1041.65 1074.33 1113.29 1065.89 1175.35 1042.71C1266.13 1008.8 1336.41 943.342 1344.54 844.014C1358.24 676.778 1291.42 433.214 1124.19 419.522C956.949 405.83 652.851 683.886 639.159 851.122C625.468 1018.36 806.505 1055.08 973.742 1068.77Z" stroke="#1A8B9C" stroke-opacity="0.03" stroke-width="5"/>
<path opacity="0.628249" fill-rule="evenodd" clip-rule="evenodd" d="M977.567 1056.58C1042.96 1061.4 1111.83 1052.73 1171.37 1029.94C1258.46 996.609 1325.58 933.084 1332.64 837.441C1344.53 676.411 1278.35 442.555 1117.32 430.671C956.291 418.786 665.816 688.695 653.932 849.726C642.047 1010.76 816.536 1044.69 977.567 1056.58Z" stroke="#1A8B9C" stroke-opacity="0.03" stroke-width="5"/>
<path opacity="0.283846" fill-rule="evenodd" clip-rule="evenodd" d="M980.84 1044.04C1043.64 1048.19 1109.68 1039.37 1166.66 1017.06C1250.01 984.427 1313.98 922.96 1320.05 831.107C1330.28 676.456 1265.05 452.475 1110.4 442.247C955.747 432.02 678.913 693.217 668.685 847.868C658.458 1002.52 826.188 1033.81 980.84 1044.04Z" stroke="#1A8B9C" stroke-opacity="0.03" stroke-width="5"/>
<path opacity="0.166894" fill-rule="evenodd" clip-rule="evenodd" d="M983.879 1031.26C1044.03 1034.8 1107.21 1025.89 1161.61 1004.13C1241.19 972.314 1302.01 913.019 1307.19 825.03C1315.91 676.886 1251.91 462.883 1103.76 454.161C955.616 445.439 692.365 697.445 683.643 845.589C674.921 993.734 835.734 1022.54 983.879 1031.26Z" stroke="#1A8B9C" stroke-opacity="0.03" stroke-width="5"/>
<path opacity="0.209296" fill-rule="evenodd" clip-rule="evenodd" d="M986.9 1018.64C1044.45 1021.64 1104.8 1012.7 1156.69 991.546C1232.58 960.597 1290.35 903.497 1294.73 819.321C1302.1 677.596 1239.5 473.368 1097.77 465.995C956.046 458.622 705.95 701.33 698.577 843.055C691.204 984.78 845.175 1011.27 986.9 1018.64Z" stroke="#1A8B9C" stroke-opacity="0.03" stroke-width="5"/>
<path opacity="0.967111" fill-rule="evenodd" clip-rule="evenodd" d="M989.699 1006.31C1044.7 1008.82 1102.3 999.911 1151.74 979.378C1224.06 949.345 1278.9 894.437 1282.57 813.99C1288.74 678.543 1227.68 483.811 1092.23 477.636C956.784 471.462 719.336 704.877 713.162 840.324C706.988 975.771 854.252 1000.14 989.699 1006.31Z" stroke="#1A8B9C" stroke-opacity="0.03" stroke-width="5"/>
<path opacity="0.873072" fill-rule="evenodd" clip-rule="evenodd" d="M991.995 993.662C1044.38 995.734 1099.18 986.923 1146.14 967.088C1214.83 938.076 1266.74 885.479 1269.77 808.855C1274.87 679.846 1215.61 494.769 1086.6 489.666C957.589 484.563 732.825 708.182 727.722 837.192C722.619 966.201 862.985 988.559 991.995 993.662Z" stroke="#1A8B9C" stroke-opacity="0.03" stroke-width="5"/>
<path opacity="0.601373" fill-rule="evenodd" clip-rule="evenodd" d="M994.086 981.273C1043.91 982.964 1095.98 974.294 1140.52 955.183C1205.68 927.229 1254.76 876.937 1257.24 804.058C1261.4 681.354 1204.07 505.678 1081.36 501.513C958.658 497.347 746.118 711.188 741.953 833.891C737.787 956.595 871.382 977.107 994.086 981.273Z" stroke="#1A8B9C" stroke-opacity="0.03" stroke-width="5"/>
<path opacity="0.618461" fill-rule="evenodd" clip-rule="evenodd" d="M996.2 969.049C1043.5 970.41 1092.87 961.924 1135.06 943.566C1196.77 916.713 1243.1 868.738 1245.09 799.555C1248.44 683.072 1193.16 516.615 1076.68 513.265C960.193 509.915 759.517 713.923 756.167 830.406C752.818 946.888 879.718 965.7 996.2 969.049Z" stroke="#1A8B9C" stroke-opacity="0.03" stroke-width="5"/>
<path opacity="0.447102" fill-rule="evenodd" clip-rule="evenodd" d="M997.681 956.199C1042.32 957.27 1088.88 949.04 1128.61 931.525C1186.73 905.907 1230.24 860.423 1231.8 795.125C1234.44 685.183 1181.52 528.342 1071.58 525.704C961.635 523.066 773.171 716.495 770.533 826.437C767.896 936.379 887.739 953.562 997.681 956.199Z" stroke="#1A8B9C" stroke-opacity="0.03" stroke-width="5"/>
<path opacity="0.585406" fill-rule="evenodd" clip-rule="evenodd" d="M999.176 943.42C1041.18 944.245 1084.94 936.313 1122.25 919.674C1176.81 895.336 1217.56 852.37 1218.77 790.934C1220.8 687.497 1170.37 540.166 1066.94 538.133C963.498 536.101 786.991 718.837 784.959 822.275C782.926 925.713 895.738 941.388 999.176 943.42Z" stroke="#1A8B9C" stroke-opacity="0.03" stroke-width="5"/>
<path opacity="0.161729" fill-rule="evenodd" clip-rule="evenodd" d="M1000.61 931.057C1040.06 931.678 1081.13 924.067 1116.1 908.304C1167.25 885.248 1205.36 844.75 1206.27 787.051C1207.8 689.906 1159.9 551.734 1062.75 550.205C965.608 548.677 800.523 720.932 798.995 818.078C797.467 915.223 903.465 929.529 1000.61 931.057Z" stroke="#1A8B9C" stroke-opacity="0.03" stroke-width="5"/>
<path opacity="0.84043" fill-rule="evenodd" clip-rule="evenodd" d="M1001.56 918.292C1038.37 918.743 1076.67 911.509 1109.25 896.687C1156.9 875.007 1192.33 837.095 1192.99 783.256C1194.1 692.607 1148.96 563.839 1058.31 562.728C967.661 561.618 814.186 722.882 813.076 813.53C811.966 904.179 910.916 917.182 1001.56 918.292Z" stroke="#1A8B9C" stroke-opacity="0.03" stroke-width="5"/>
<path opacity="0.34544" fill-rule="evenodd" clip-rule="evenodd" d="M1002.47 905.393C1036.61 905.707 1072.11 898.889 1102.29 885.048C1146.43 864.805 1179.18 829.539 1179.64 779.599C1180.42 695.515 1138.18 576.205 1054.1 575.432C970.012 574.659 828.114 724.673 827.342 808.756C826.569 892.84 918.386 904.62 1002.47 905.393Z" stroke="#1A8B9C" stroke-opacity="0.03" stroke-width="5"/>
<path opacity="0.342168" fill-rule="evenodd" clip-rule="evenodd" d="M1003.47 893.112C1035.08 893.319 1067.92 886.922 1095.82 874.038C1136.63 855.192 1166.86 822.47 1167.17 776.242C1167.68 698.409 1128.29 588.074 1050.46 587.563C972.628 587.052 841.647 726.254 841.135 804.086C840.624 881.919 925.642 892.6 1003.47 893.112Z" stroke="#1A8B9C" stroke-opacity="0.03" stroke-width="5"/>
<path opacity="0.330976" fill-rule="evenodd" clip-rule="evenodd" d="M1004.44 880.686C1033.48 880.813 1063.64 874.869 1089.25 862.976C1126.7 845.58 1154.41 815.457 1154.6 772.985C1154.91 701.477 1118.51 600.187 1047 599.874C975.489 599.56 855.431 727.713 855.118 799.222C854.805 870.73 932.935 880.373 1004.44 880.686Z" stroke="#1A8B9C" stroke-opacity="0.03" stroke-width="5"/>
<path opacity="0.01" fill-rule="evenodd" clip-rule="evenodd" d="M1005.04 867.961C1031.45 868.03 1058.87 862.577 1082.14 851.72C1116.17 835.841 1141.32 808.401 1141.42 769.776C1141.59 704.744 1108.33 612.688 1043.29 612.517C978.262 612.346 869.284 729.082 869.112 794.113C868.941 859.145 940.01 867.79 1005.04 867.961Z" stroke="#1A8B9C" stroke-opacity="0.03" stroke-width="5"/>
<path opacity="0.745695" fill-rule="evenodd" clip-rule="evenodd" d="M1005.6 855.508C1029.44 855.539 1054.18 850.585 1075.17 840.759C1105.86 826.386 1128.53 801.591 1128.58 766.731C1128.65 708.038 1098.52 624.993 1039.82 624.915C981.13 624.838 882.912 730.326 882.835 789.019C882.758 847.713 946.91 855.431 1005.6 855.508Z" stroke="#1A8B9C" stroke-opacity="0.03" stroke-width="5"/>
<path opacity="0.844663" fill-rule="evenodd" clip-rule="evenodd" d="M1005.85 842.81C1027.06 842.819 1049.08 838.391 1067.74 829.63C1095.05 816.817 1115.2 794.735 1115.22 763.713C1115.24 711.482 1088.36 637.605 1036.13 637.582C983.896 637.56 896.575 731.508 896.552 783.739C896.529 835.969 953.624 842.787 1005.85 842.81Z" stroke="#1A8B9C" stroke-opacity="0.03" stroke-width="5"/>
<path opacity="0.626639" fill-rule="evenodd" clip-rule="evenodd" d="M1006.07 829.831C1024.6 829.831 1043.83 825.954 1060.13 818.294C1083.98 807.091 1101.57 787.794 1101.57 760.696C1101.57 715.071 1078.06 650.548 1032.44 650.548C986.812 650.548 910.572 732.648 910.572 778.272C910.572 823.897 960.447 829.831 1006.07 829.831Z" stroke="#1A8B9C" stroke-opacity="0.03" stroke-width="5"/>
<path opacity="0.434648" fill-rule="evenodd" clip-rule="evenodd" d="M1006.07 816.689C1021.88 816.689 1038.29 813.381 1052.2 806.844C1072.56 797.283 1087.57 780.815 1087.57 757.689C1087.57 718.753 1067.51 663.689 1028.57 663.689C989.635 663.689 924.572 733.753 924.572 772.689C924.572 811.626 967.135 816.689 1006.07 816.689Z" stroke="#1A8B9C" stroke-opacity="0.03" stroke-width="5"/>
</svg>
