<svg width="39" height="39" viewBox="0 0 39 39" fill="none" xmlns="http://www.w3.org/2000/svg">
<path d="M17.5224 13.6806C14.6528 12.1603 10.1494 15.1218 7.91398 17.7813C7.6881 18.0501 7.91163 18.4574 8.2599 18.4128C10.0049 18.1893 13.7717 18.0579 16.316 20.5041" fill="#5B6A72"/>
<path d="M27.413 20.416C29.8789 22.5291 28.773 27.8045 27.1174 30.8587C26.9501 31.1673 26.4891 31.1085 26.4031 30.7682C25.9718 29.0627 24.7141 25.5096 21.5058 24.0384" fill="#5B6A72"/>
<path d="M20.7868 26.2263C23.182 22.7095 23.6523 18.8564 21.8373 17.6203C20.0223 16.3842 16.6093 18.2331 14.2141 21.7499C11.8189 25.2668 11.3486 29.1198 13.1636 30.3559C14.9786 31.5921 18.3916 29.7432 20.7868 26.2263Z" fill="#EF8100"/>
<path d="M19.5896 25.4109C21.1123 23.1752 21.4114 20.7257 20.2576 19.9399C19.1039 19.1541 16.9342 20.3295 15.4115 22.5653C13.8888 24.8011 13.5897 27.2506 14.7435 28.0364C15.8972 28.8222 18.0669 27.6467 19.5896 25.4109Z" fill="#EFBC00"/>
<path d="M32.3144 2.72963C33.8477 7.21402 34.464 11.3608 31.5296 15.6697C29.2085 19.0782 24.8862 23.8446 23.1811 25.6879C22.7651 26.1376 22.0903 26.2317 21.5666 25.9137L17.9329 23.7075L14.5487 21.1347C14.0611 20.7639 13.9014 20.1016 14.1674 19.5498C15.258 17.2878 18.1095 11.5199 20.4307 8.11147C23.3651 3.80254 27.4493 2.85685 32.1838 2.64066L32.3144 2.72963Z" fill="#DBF2FA"/>
<path d="M17.6657 24.0998L14.2619 21.5119C13.5976 21.007 13.3784 20.0953 13.7406 19.3441C14.8575 17.0274 17.7068 11.2696 20.0391 7.84484C23.204 3.19725 27.736 2.36957 32.1622 2.16743L32.3201 2.16017L32.7118 2.42694L32.7629 2.57639C33.6867 5.27865 34.0904 7.34305 34.0713 9.27024C34.0478 11.6663 33.3445 13.8469 31.9215 15.9366C29.5892 19.3614 25.2755 24.122 23.5291 26.0099C22.9627 26.6221 22.0341 26.7521 21.3209 26.319L17.6657 24.0998ZM31.9484 3.12657C27.2403 3.37058 23.5406 4.38679 20.8225 8.37816C18.5261 11.7503 15.702 17.458 14.5945 19.7555C14.4272 20.1026 14.5286 20.5239 14.8356 20.7573L18.2 23.3152L21.8126 25.5087C22.1422 25.7088 22.5715 25.6489 22.8331 25.3661C24.565 23.4939 28.8414 18.7751 31.1378 15.403C33.856 11.4115 33.4462 7.59689 31.9484 3.12657Z" fill="#5B6A72"/>
<path d="M25.7791 14.4899C27.6332 14.4899 29.1362 12.9868 29.1362 11.1328C29.1362 9.27866 27.6332 7.77562 25.7791 7.77562C23.925 7.77562 22.4219 9.27866 22.4219 11.1328C22.4219 12.9868 23.925 14.4899 25.7791 14.4899Z" fill="#FEFEFE"/>
<path d="M23.6231 14.2992C21.8772 13.1102 21.424 10.7225 22.613 8.97642C23.802 7.2305 26.1897 6.77731 27.9358 7.96633C29.6819 9.15535 30.1349 11.5431 28.9459 13.2891C27.7568 15.0351 25.3691 15.4882 23.6231 14.2992ZM27.4022 8.74986C26.0882 7.85506 24.2913 8.19606 23.3964 9.51004C22.5016 10.824 22.8426 12.621 24.1566 13.5158C25.4705 14.4106 27.2675 14.0696 28.1624 12.7557C29.0572 11.4417 28.7162 9.64459 27.4022 8.74986Z" fill="#5B6A72"/>
<path d="M9.3246 32.7319L7.84121 34.9096C7.71407 34.8156 7.58843 34.72 7.46362 34.6228L8.93279 32.4649L9.3246 32.7319Z" fill="#5B6A72"/>
<path d="M10.2622 35.1117L9.60654 36.0746C9.46987 35.9948 9.33402 35.9134 9.19977 35.8297L9.87036 34.8456L10.2622 35.1117Z" fill="#5B6A72"/>
</svg>
